{
  "source": "C:\\Users\\Peter\\Desktop\\stuff\\MIUN\\quantitative_research\\video_compression\\videos\\BVI-HD\\RockWater_1920x1080_30fps.mp4",
  "output": "C:\\Users\\Peter\\Desktop\\stuff\\MIUN\\quantitative_research\\video_compression\\compressed_videos\\BVI-HD\\hevc\\8\\RockWater_1920x1080_30fps_hevc.mp4",
  "codec": "hevc",
  "ok": "Input #0, mov,mp4,m4a,3gp,3g2,mj2, from 'C:\\Users\\Peter\\Desktop\\stuff\\MIUN\\quantitative_research\\video_compression\\videos\\BVI-HD\\RockWater_1920x1080_30fps.mp4':\n  Metadata:\n    major_brand     : isom\n    minor_version   : 512\n    compatible_brands: isomiso2avc1mp41\n    encoder         : Lavf54.28.101\n  Duration: 00:00:05.00, start: 0.000000, bitrate: 245943 kb/s\n  Stream #0:0[0x1](und): Video: h264 (High 4:4:4 Predictive) (avc1 / 0x31637661), yuv420p(progressive), 1920x1080, 245940 kb/s, 30 fps, 30 tbr, 30 tbn (default)\n    Metadata:\n      handler_name    : VideoHandler\n      vendor_id       : [0][0][0][0]\n[out#0/mp4 @ 000001e768dd1440] Codec AVOption b:a (set bitrate (in bits/s)) has not been used for any stream. The most likely reason is either wrong type (e.g. a video option with no video streams) or that it is a private option of some decoder which was not actually used for any stream.\nStream mapping:\n  Stream #0:0 -> #0:0 (h264 (native) -> hevc (libx265))\nPress [q] to stop, [?] for help\n[libx265 @ 000001e7696847c0] Unknown option: \"aq-mode.\nx265 [info]: HEVC encoder version 4.1+190-8f11c33ac\nx265 [info]: build info [Windows][GCC 15.1.0][64 bit] 10bit\nx265 [info]: using cpu capabilities: MMX2 SSE2Fast LZCNT SSSE3 SSE4.2 AVX FMA3 BMI2 AVX2\nx265 [info]: Main 10 profile, Level-4 (Main tier)\nx265 [info]: Thread pool created using 12 threads\nx265 [info]: Slices                              : 1\nx265 [info]: frame threads / pool features       : 3 / wpp(17 rows)\nx265 [info]: Coding QT: max CU size, min CU size : 64 / 8\nx265 [info]: Residual QT: max TU size, max depth : 32 / 1 inter / 1 intra\nx265 [info]: ME / range / subpel / merge         : star / 57 / 3 / 3\nx265 [info]: Keyframe min / max / scenecut / bias  : 25 / 250 / 40 / 5.00 \nx265 [info]: Lookahead / bframes / badapt        : 25 / 4 / 2\nx265 [info]: b-pyramid / weightp / weightb       : 1 / 1 / 0\nx265 [info]: References / ref-limit  cu / depth  : 4 / on / on\nx265 [info]: AQ: mode / str / qg-size / cu-tree  : 2 / 1.0 / 32 / 1\nx265 [info]: Rate Control / qCompress            : ABR-8000 kbps / 0.60\nx265 [info]: VBV/HRD buffer / max-rate / init    : 8000 / 8000 / 0.750\nx265 [info]: tools: rect limit-modes rd=4 psy-rd=2.00 rdoq=2 psy-rdoq=1.00\nx265 [info]: tools: rskip mode=1 signhide tmvp strong-intra-smoothing lslices=4\nx265 [info]: tools: deblock sao dhdr10-info\nOutput #0, mp4, to 'C:\\Users\\Peter\\Desktop\\stuff\\MIUN\\quantitative_research\\video_compression\\compressed_videos\\BVI-HD\\hevc\\8\\RockWater_1920x1080_30fps_hevc.mp4':\n  Metadata:\n    major_brand     : isom\n    minor_version   : 512\n    compatible_brands: isomiso2avc1mp41\n    encoder         : Lavf62.3.100\n  Stream #0:0(und): Video: hevc (hev1 / 0x31766568), yuv420p10le(tv, progressive), 1920x1080, q=2-31, 8000 kb/s, 30 fps, 15360 tbn (default)\n    Metadata:\n      encoder         : Lavc62.11.100 libx265\n      handler_name    : VideoHandler\n      vendor_id       : [0][0][0][0]\n    Side data:\n      cpb: bitrate max/min/avg: 8000000/0/8000000 buffer size: 8000000 vbv_delay: N/A\nframe=    0 fps=0.0 q=0.0 size=       0KiB time=N/A bitrate=N/A speed=N/A elapsed=0:00:00.52    \nframe=    0 fps=0.0 q=0.0 size=       0KiB time=N/A bitrate=N/A speed=N/A elapsed=0:00:01.08    \nframe=    1 fps=0.6 q=26.8 size=       0KiB time=-00:00:00.03 bitrate=N/A speed=N/A elapsed=0:00:01.60    \nframe=    3 fps=1.4 q=33.3 size=       0KiB time=00:00:00.03 bitrate=  10.6kbits/s speed=0.0157x elapsed=0:00:02.12    \nframe=    5 fps=1.9 q=31.0 size=       0KiB time=00:00:00.10 bitrate=   3.5kbits/s speed=0.0379x elapsed=0:00:02.64    \nframe=    7 fps=2.2 q=34.3 size=       0KiB time=00:00:00.16 bitrate=   2.1kbits/s speed=0.0529x elapsed=0:00:03.14    \nframe=    9 fps=2.5 q=30.4 size=     256KiB time=00:00:00.23 bitrate=8989.3kbits/s speed=0.0636x elapsed=0:00:03.66    \nframe=   10 fps=2.4 q=32.6 size=     256KiB time=00:00:00.26 bitrate=7865.6kbits/s speed=0.0637x elapsed=0:00:04.18    \nframe=   13 fps=2.8 q=31.3 size=     256KiB time=00:00:00.36 bitrate=5720.5kbits/s speed=0.0781x elapsed=0:00:04.69    \nframe=   14 fps=2.7 q=33.2 size=     256KiB time=00:00:00.40 bitrate=5243.8kbits/s speed=0.0768x elapsed=0:00:05.21    \nframe=   16 fps=2.8 q=30.1 size=     512KiB time=00:00:00.46 bitrate=8988.5kbits/s speed=0.0814x elapsed=0:00:05.73    \nframe=   19 fps=3.0 q=30.1 size=     512KiB time=00:00:00.56 bitrate=7402.3kbits/s speed=0.0908x elapsed=0:00:06.24    \nframe=   21 fps=3.1 q=33.7 size=     512KiB time=00:00:00.63 bitrate=6623.1kbits/s speed=0.0935x elapsed=0:00:06.77    \nframe=   23 fps=3.2 q=33.9 size=     768KiB time=00:00:00.70 bitrate=8988.3kbits/s speed=0.0962x elapsed=0:00:07.27    \nframe=   25 fps=3.2 q=32.3 size=     768KiB time=00:00:00.76 bitrate=8206.7kbits/s speed=0.0984x elapsed=0:00:07.78    \nframe=   27 fps=3.2 q=33.9 size=     768KiB time=00:00:00.83 bitrate=7550.2kbits/s speed= 0.1x elapsed=0:00:08.31    \nframe=   29 fps=3.3 q=32.4 size=     768KiB time=00:00:00.90 bitrate=6990.9kbits/s speed=0.102x elapsed=0:00:08.83    \nframe=   31 fps=3.3 q=29.9 size=    1024KiB time=00:00:00.96 bitrate=8678.2kbits/s speed=0.103x elapsed=0:00:09.34    \nframe=   34 fps=3.4 q=34.1 size=    1024KiB time=00:00:01.06 bitrate=7864.6kbits/s speed=0.108x elapsed=0:00:09.85    \nframe=   36 fps=3.5 q=29.9 size=    1024KiB time=00:00:01.13 bitrate=7402.0kbits/s speed=0.109x elapsed=0:00:10.37    \nframe=   39 fps=3.6 q=34.0 size=    1280KiB time=00:00:01.23 bitrate=8502.3kbits/s speed=0.113x elapsed=0:00:10.88    \nframe=   41 fps=3.6 q=33.9 size=    1280KiB time=00:00:01.30 bitrate=8066.2kbits/s speed=0.114x elapsed=0:00:11.40    \nframe=   44 fps=3.7 q=33.9 size=    1280KiB time=00:00:01.40 bitrate=7490.1kbits/s speed=0.117x elapsed=0:00:11.92    \nframe=   46 fps=3.7 q=34.0 size=    1280KiB time=00:00:01.46 bitrate=7149.6kbits/s speed=0.118x elapsed=0:00:12.42    \nframe=   49 fps=3.8 q=33.9 size=    1536KiB time=00:00:01.56 bitrate=8031.9kbits/s speed=0.121x elapsed=0:00:12.94    \nframe=   52 fps=3.9 q=32.0 size=    1536KiB time=00:00:01.66 bitrate=7550.0kbits/s speed=0.124x elapsed=0:00:13.46    \nframe=   54 fps=3.9 q=34.0 size=    1536KiB time=00:00:01.73 bitrate=7259.6kbits/s speed=0.124x elapsed=0:00:13.98    \nframe=   57 fps=3.9 q=34.1 size=    1792KiB time=00:00:01.83 bitrate=8007.5kbits/s speed=0.127x elapsed=0:00:14.49    \nframe=   60 fps=4.0 q=31.9 size=    1792KiB time=00:00:01.93 bitrate=7593.3kbits/s speed=0.129x elapsed=0:00:15.01    \nframe=   63 fps=4.1 q=31.9 size=    1792KiB time=00:00:02.03 bitrate=7219.9kbits/s speed=0.131x elapsed=0:00:15.53    \nframe=   66 fps=4.1 q=29.1 size=    2048KiB time=00:00:02.13 bitrate=7864.5kbits/s speed=0.133x elapsed=0:00:16.04    \nframe=   69 fps=4.2 q=33.8 size=    2048KiB time=00:00:02.23 bitrate=7512.3kbits/s speed=0.135x elapsed=0:00:16.56    \nframe=   72 fps=4.2 q=31.7 size=    2304KiB time=00:00:02.33 bitrate=8089.2kbits/s speed=0.137x elapsed=0:00:17.08    \nframe=   74 fps=4.2 q=33.7 size=    2304KiB time=00:00:02.40 bitrate=7864.5kbits/s speed=0.136x elapsed=0:00:17.58    \nframe=   77 fps=4.3 q=34.0 size=    2304KiB time=00:00:02.50 bitrate=7549.9kbits/s speed=0.138x elapsed=0:00:18.10    \nframe=   80 fps=4.3 q=34.2 size=    2560KiB time=00:00:02.60 bitrate=8066.1kbits/s speed=0.14x elapsed=0:00:18.62    \nframe=   83 fps=4.3 q=34.0 size=    2560KiB time=00:00:02.70 bitrate=7767.4kbits/s speed=0.141x elapsed=0:00:19.13    \nframe=   86 fps=4.4 q=29.0 size=    2560KiB time=00:00:02.80 bitrate=7490.0kbits/s speed=0.142x elapsed=0:00:19.65    \nframe=   89 fps=4.4 q=29.1 size=    2816KiB time=00:00:02.90 bitrate=7954.8kbits/s speed=0.144x elapsed=0:00:20.16    \nframe=   91 fps=4.4 q=34.0 size=    2816KiB time=00:00:02.96 bitrate=7776.1kbits/s speed=0.143x elapsed=0:00:20.68    \nframe=   94 fps=4.4 q=29.1 size=    2816KiB time=00:00:03.06 bitrate=7522.5kbits/s speed=0.145x elapsed=0:00:21.19    \nframe=   97 fps=4.5 q=33.7 size=    3072KiB time=00:00:03.16 bitrate=7947.2kbits/s speed=0.146x elapsed=0:00:21.71    \nframe=  100 fps=4.5 q=33.0 size=    3072KiB time=00:00:03.26 bitrate=7703.9kbits/s speed=0.147x elapsed=0:00:22.23    \nframe=  102 fps=4.5 q=33.8 size=    3072KiB time=00:00:03.33 bitrate=7549.9kbits/s speed=0.147x elapsed=0:00:22.75    \nframe=  104 fps=4.5 q=29.0 size=    3328KiB time=00:00:03.40 bitrate=8018.6kbits/s speed=0.146x elapsed=0:00:23.25    \nframe=  107 fps=4.5 q=32.7 size=    3328KiB time=00:00:03.50 bitrate=7789.5kbits/s speed=0.147x elapsed=0:00:23.78    \nframe=  110 fps=4.5 q=29.3 size=    3328KiB time=00:00:03.60 bitrate=7573.1kbits/s speed=0.148x elapsed=0:00:24.29    \nframe=  113 fps=4.6 q=29.5 size=    3584KiB time=00:00:03.70 bitrate=7935.3kbits/s speed=0.149x elapsed=0:00:24.81    \nframe=  115 fps=4.5 q=34.4 size=    3584KiB time=00:00:03.76 bitrate=7794.8kbits/s speed=0.149x elapsed=0:00:25.32    \nframe=  118 fps=4.6 q=33.6 size=    3840KiB time=00:00:03.86 bitrate=8135.6kbits/s speed=0.15x elapsed=0:00:25.84    \nframe=  120 fps=4.6 q=34.7 size=    3840KiB time=00:00:03.93 bitrate=7997.7kbits/s speed=0.149x elapsed=0:00:26.36    \nframe=  123 fps=4.6 q=33.5 size=    3840KiB time=00:00:04.03 bitrate=7799.4kbits/s speed=0.15x elapsed=0:00:26.87    \nframe=  125 fps=4.6 q=34.8 size=    4096KiB time=00:00:04.10 bitrate=8184.1kbits/s speed=0.15x elapsed=0:00:27.38    \nframe=  128 fps=4.6 q=32.7 size=    4096KiB time=00:00:04.20 bitrate=7989.2kbits/s speed=0.15x elapsed=0:00:27.91    \nframe=  131 fps=4.6 q=30.0 size=    4096KiB time=00:00:04.30 bitrate=7803.4kbits/s speed=0.151x elapsed=0:00:28.42    \nframe=  134 fps=4.6 q=35.0 size=    4352KiB time=00:00:04.40 bitrate=8102.7kbits/s speed=0.152x elapsed=0:00:28.93    \nframe=  137 fps=4.7 q=35.0 size=    4352KiB time=00:00:04.50 bitrate=7922.7kbits/s speed=0.153x elapsed=0:00:29.45    \nframe=  140 fps=4.7 q=30.7 size=    4352KiB time=00:00:04.60 bitrate=7750.4kbits/s speed=0.154x elapsed=0:00:29.96    \nframe=  143 fps=4.7 q=35.1 size=    4608KiB time=00:00:04.70 bitrate=8031.7kbits/s speed=0.154x elapsed=0:00:30.47    \nframe=  146 fps=4.7 q=34.9 size=    4608KiB time=00:00:04.80 bitrate=7864.4kbits/s speed=0.155x elapsed=0:00:30.99    \n[mp4 @ 000001e768dd1580] Starting second pass: moving the moov atom to the beginning of the file\n[out#0/mp4 @ 000001e768dd1440] video:4850KiB audio:0KiB subtitle:0KiB other streams:0KiB global headers:2KiB muxing overhead: 0.106630%\nframe=  150 fps=4.8 q=34.3 Lsize=    4855KiB time=00:00:04.93 bitrate=8062.7kbits/s speed=0.158x elapsed=0:00:31.30    \nx265 [info]: frame I:      1, Avg QP:26.81  kb/s: 22482.48\nx265 [info]: frame P:     39, Avg QP:29.73  kb/s: 14825.78\nx265 [info]: frame B:    110, Avg QP:33.59  kb/s: 5374.37 \nx265 [info]: Weighted P-Frames: Y:15.4% UV:12.8%\n\nencoded 150 frames in 31.14s (4.82 fps), 7945.79 kb/s, Avg QP:32.54\n",
  "seconds": 31.489920616149902,
  "probe_out": {}
}